
<svg width="501px" height="501px" viewBox="0 0 501 501" version="1.1" xmlns="http://www.w3.org/2000/svg" xmlns:xlink="http://www.w3.org/1999/xlink">
    <!-- Generator: Sketch 51.2 (57519) - http://www.bohemiancoding.com/sketch -->
    <desc>Created with Sketch.</desc>
    <defs></defs>
    <g id="Page-1" stroke="none" stroke-width="1" fill="none" fill-rule="evenodd">
        <g id="UI-for-SOAP-01" transform="translate(-668.000000, -958.000000)" fill-rule="nonzero">
            <g id="selector" transform="translate(139.000000, 430.000000)">
                <g id="Group" opacity="0.8" fill="#FFFFFF">
                    <path d="M664.09,528.92 C657.006502,599.914384 600.853856,656.071213 529.86,663.16 L529.86,1028.16 C802.08,1020.43 1021.34,801.16 1029.07,528.94 L664.09,528.92 Z" id="Shape"></path>
                </g>
                <path d="M529.86,987.76 L529.86,1028.14 C802.08,1020.41 1021.34,801.14 1029.07,528.92 L987.33,528.92 C979.65,778.41 779.16,979.35 529.86,987.76 Z" id="Shape" fill="#FFFFFF"></path>
                <g id="Group" transform="translate(89.000000, 76.000000)" fill="#636363">
                    <path d="M683.05,867.28 L677.54,870.55 L678.97,875.46 L674.84,877.91 L669.84,856.62 L674.68,853.75 L690.96,868.35 L686.67,870.9 L683.05,867.28 Z M680.35,864.61 L678.93,863.22 C677.37,861.72 675.65,859.88 674.04,858.3 L673.93,858.37 C674.64,860.51 675.39,862.9 675.93,864.98 L676.47,866.89 L680.35,864.61 Z" id="Shape"></path>
                    <path d="M688,845.54 L694.33,841.32 C698.11,838.8 702.04,838.17 704.84,842.38 C707.64,846.59 705.66,850.38 701.98,852.79 L699.59,854.39 L703.51,860.27 L699.58,862.9 L688,845.54 Z M699.67,849.83 C701.82,848.39 702.22,846.74 701.01,844.94 C699.8,843.14 698.24,843.21 696.17,844.59 L694,846 L697.5,851.24 L699.67,849.83 Z" id="Shape"></path>
                    <path d="M709.6,830.71 L715.7,826.14 C719.33,823.41 723.22,822.57 726.26,826.62 C729.3,830.67 727.5,834.52 723.97,837.17 L721.67,838.9 L725.91,844.56 L722.12,847.4 L709.6,830.71 Z M721.49,834.35 C723.57,832.79 723.88,831.12 722.57,829.35 C721.26,827.58 719.71,827.78 717.71,829.27 L715.64,830.83 L719.42,835.83 L721.49,834.35 Z" id="Shape"></path>
                    <polygon id="Shape" points="730.39 814.7 734.03 811.7 744.85 824.7 751.17 819.44 753.71 822.44 743.71 830.74"></polygon>
                    <polygon id="Shape" points="748.19 799.46 751.7 796.28 765.7 811.74 762.19 814.92"></polygon>
                    <path d="M766.4,781.69 C768.093527,780.076994 770.36231,779.209095 772.7,779.28 L772.91,783.17 C771.573191,783.122185 770.272965,783.612021 769.3,784.53 C767.23,786.53 767.39,789.98 770.3,792.96 C773.21,795.94 776.51,796.36 778.67,794.22 C779.770719,793.149979 780.326169,791.638124 780.18,790.11 L784.03,790.31 C784.253795,792.860682 783.317227,795.37656 781.48,797.16 C777.64,800.96 771.91,801.45 766.98,796.47 C762.05,791.49 762.58,785.47 766.4,781.69 Z" id="Shape"></path>
                    <path d="M796.38,773.78 L792.07,778.51 L794.87,782.8 L791.64,786.34 L780.64,767.45 L784.44,763.28 L804.27,772.48 L800.91,776.17 L796.38,773.78 Z M793,772 L791.24,771.09 C789.31,770.09 787.12,768.86 785.13,767.82 L785.04,767.91 C786.35,769.75 787.76,771.82 788.91,773.64 L789.98,775.31 L793,772 Z" id="Shape"></path>
                    <polygon id="Shape" points="799.55 751.88 795.88 756.32 792.82 753.79 803.12 741.3 806.19 743.83 802.54 748.25 815.54 759 812.54 762.63"></polygon>
                    <polygon id="Shape" points="809.31 733.29 812.16 729.51 828.81 742.09 825.95 745.86"></polygon>
                    <path d="M827.13,726.68 C821.5,722.83 820.47,717.43 823.63,712.81 C826.79,708.19 832.22,707.22 837.82,711.05 C843.42,714.88 844.66,720.38 841.48,725.05 C838.3,729.72 832.75,730.53 827.13,726.68 Z M835.13,715.03 C831.69,712.69 828.62,712.76 827.01,715.11 C825.4,717.46 826.45,720.35 829.89,722.69 C833.33,725.03 836.57,725.05 838.16,722.69 C839.75,720.33 838.56,717.4 835.1,715 L835.13,715.03 Z" id="Shape"></path>
                    <path d="M835.08,696.13 L837.56,691.99 L849.25,692.66 L854.25,693.25 L854.32,693.14 C852.32,692.14 849.59,691.01 847.47,689.74 L841.16,685.95 L843.47,682.11 L861.36,692.85 L858.87,696.99 L847.15,696.3 L842.21,695.72 L842.14,695.83 C844.23,696.83 846.81,697.93 848.93,699.19 L855.27,703 L852.94,706.87 L835.08,696.13 Z" id="Shape"></path>
                </g>
            </g>
        </g>
    </g>
</svg>
