
<svg width="1200px" height="2500px" viewBox="0 0 1200 2500" version="1.1" xmlns="http://www.w3.org/2000/svg" xmlns:xlink="http://www.w3.org/1999/xlink">
    <!-- Generator: Sketch 51.2 (57519) - http://www.bohemiancoding.com/sketch -->
    <desc>Created with Sketch.</desc>
    <defs></defs>
    <g id="Page-1" stroke="none" stroke-width="1" fill="none" fill-rule="evenodd">
        <g id="UI-for-SOAP-01" transform="translate(-54.000000, -47.000000)" fill-rule="nonzero">
            <g id="Clipped" transform="translate(54.000000, 47.000000)">
                <g id="Group" transform="translate(-79.000000, 0.000000)">
                    <polygon id="Shape" fill="#8C698F" points="1170.17 2758.44 1266.5 2505.73 1226.88 2490.44"></polygon>
                    <polygon id="Shape" fill="#724976" points="1170.17 2758.44 1226.88 2490.44 968.58 2586.96"></polygon>
                    <polygon id="Shape" fill="#704873" points="1318.96 2706.27 1520.69 2463.32 1266.5 2505.73"></polygon>
                    <polygon id="Shape" fill="#82AE3A" points="230.89 2721.82 253.09 2493.28 175.71 2664.84"></polygon>
                    <polygon id="Shape" fill="#A0B336" points="230.89 2721.82 407.32 2574.79 253.09 2493.28"></polygon>
                    <polygon id="Shape" fill="#738E6B" points="840.44 2703.26 794.53 2481.34 662.73 2671.08"></polygon>
                    <polygon id="Shape" fill="#8A888F" points="840.44 2703.26 968.58 2586.96 794.53 2481.34"></polygon>
                    <polygon id="Shape" fill="#79911B" points="0.74 2681.78 108.54 2571.55 0.74 2499.11"></polygon>
                    <polygon id="Shape" fill="#7DA355" points="662.73 2671.08 794.53 2481.34 574.83 2539.1"></polygon>
                    <polygon id="Shape" fill="#70B25A" points="175.71 2664.84 253.09 2493.28 108.54 2571.55"></polygon>
                    <polygon id="Shape" fill="#4C3660" points="968.58 2586.96 1226.88 2490.44 1036.05 2390.95"></polygon>
                    <polygon id="Shape" fill="#B9C1BA" points="794.53 2481.34 1036.05 2390.95 816.39 2384.25"></polygon>
                    <polygon id="Shape" fill="#6B608E" points="1226.88 2490.44 1155.46 2382.98 1036.05 2390.95"></polygon>
                    <polygon id="Shape" fill="#80678B" points="1266.5 2505.73 1520.69 2463.32 1338.79 2367.77"></polygon>
                    <polygon id="Shape" fill="#669327" points="407.32 2574.79 574.83 2539.1 501.57 2357.48"></polygon>
                    <polygon id="Shape" fill="#9F9DA4" points="968.58 2586.96 1036.05 2390.95 794.53 2481.34"></polygon>
                    <polygon id="Shape" fill="#88AB50" points="574.83 2539.1 794.53 2481.34 635.91 2315.31"></polygon>
                    <polygon id="Shape" fill="#718B09" points="108.54 2571.55 253.09 2493.28 238.92 2397.44"></polygon>
                    <polygon id="Shape" fill="#87B340" points="407.32 2574.79 501.57 2357.48 253.09 2493.28"></polygon>
                    <polygon id="Shape" fill="#97A326" points="108.54 2571.55 238.92 2397.44 0.74 2464.55"></polygon>
                    <polygon id="Shape" fill="#495312" points="108.54 2571.55 0.74 2464.55 0.74 2499.11"></polygon>
                    <polygon id="Shape" fill="#8A8E1E" points="0.74 2464.55 238.92 2397.44 179.94 2320.27"></polygon>
                    <polygon id="Shape" fill="#87B548" points="253.09 2493.28 501.57 2357.48 238.92 2397.44"></polygon>
                    <polygon id="Shape" fill="#668B21" points="574.83 2539.1 635.91 2315.31 501.57 2357.48"></polygon>
                    <polygon id="Shape" fill="#8F9728" points="0.74 2464.55 179.94 2320.27 0.74 2330.08"></polygon>
                    <polygon id="Shape" fill="#ADBB82" points="794.53 2481.34 816.39 2384.25 635.91 2315.31"></polygon>
                    <polygon id="Shape" fill="#907E86" points="1266.5 2505.73 1338.79 2367.77 1226.88 2490.44"></polygon>
                    <polygon id="Shape" fill="#7F6E82" points="1226.88 2490.44 1338.79 2367.77 1155.46 2382.98"></polygon>
                    <polygon id="Shape" fill="#989C1B" points="238.92 2397.44 501.57 2357.48 294.22 2183.49"></polygon>
                    <polygon id="Shape" fill="#868F11" points="501.57 2357.48 455 2188.42 294.22 2183.49"></polygon>
                    <polygon id="Shape" fill="#4A4966" points="1155.46 2382.98 1338.79 2367.77 1288.07 2233.97"></polygon>
                    <polygon id="Shape" fill="#B7C596" points="816.39 2384.25 842.17 2181.79 635.91 2315.31"></polygon>
                    <polygon id="Shape" fill="#636A6D" points="1036.05 2390.95 1155.46 2382.98 1122.48 2144.49"></polygon>
                    <polygon id="Shape" fill="#839270" points="1036.05 2390.95 842.17 2181.79 816.39 2384.25"></polygon>
                    <polygon id="Shape" fill="#939A7E" points="1036.05 2390.95 964.06 2126.12 842.17 2181.79"></polygon>
                    <polygon id="Shape" fill="#998602" points="238.92 2397.44 294.22 2183.49 179.94 2320.27"></polygon>
                    <polygon id="Shape" fill="#777F66" points="1036.05 2390.95 1122.48 2144.49 964.06 2126.12"></polygon>
                    <polygon id="Shape" fill="#9B9323" points="0.74 2330.08 179.94 2320.27 0.74 2244.51"></polygon>
                    <polygon id="Shape" fill="#646C87" points="1155.46 2382.98 1288.07 2233.97 1122.48 2144.49"></polygon>
                    <polygon id="Shape" fill="#7F8D10" points="501.57 2357.48 635.91 2315.31 455 2188.42"></polygon>
                    <polygon id="Shape" fill="#8F7E0D" points="179.94 2320.27 56.98 2172.55 0.74 2244.51"></polygon>
                    <polygon id="Shape" fill="#969227" points="635.91 2315.31 629.91 2122.37 455 2188.42"></polygon>
                    <polygon id="Shape" fill="#A3AF52" points="635.91 2315.31 842.17 2181.79 629.91 2122.37"></polygon>
                    <polygon id="Shape" fill="#A79B49" points="179.94 2320.27 294.22 2183.49 56.98 2172.55"></polygon>
                    <polygon id="Shape" fill="#A2A871" points="842.17 2181.79 793.05 2033.94 629.91 2122.37"></polygon>
                    <polygon id="Shape" fill="#977D1A" points="294.22 2183.49 59.73 2056.8 56.98 2172.55"></polygon>
                    <polygon id="Shape" fill="#84938F" points="1288.07 2233.97 1199.7 2017.39 1122.48 2144.49"></polygon>
                    <polygon id="Shape" fill="#6E8881" points="1288.07 2233.97 1443.48 2043.84 1199.7 2017.39"></polygon>
                    <polygon id="Shape" fill="#667774" points="1443.48 2043.84 1320.69 1935.5 1199.7 2017.39"></polygon>
                    <polygon id="Shape" fill="#A7862C" points="294.22 2183.49 274.38 1933.45 59.73 2056.8"></polygon>
                    <polygon id="Shape" fill="#9A9E57" points="455 2188.42 629.91 2122.37 614.92 2007.17"></polygon>
                    <polygon id="Shape" fill="#A4942F" points="455 2188.42 614.92 2007.17 410.39 1984.44"></polygon>
                    <polygon id="Shape" fill="#9A8010" points="455 2188.42 410.39 1984.44 294.22 2183.49"></polygon>
                    <polygon id="Shape" fill="#B1B58E" points="842.17 2181.79 964.06 2126.12 793.05 2033.94"></polygon>
                    <polygon id="Shape" fill="#9F770A" points="294.22 2183.49 410.39 1984.44 274.38 1933.45"></polygon>
                    <polygon id="Shape" fill="#9D9842" points="629.91 2122.37 793.05 2033.94 614.92 2007.17"></polygon>
                    <polygon id="Shape" fill="#C5C48C" points="964.06 2126.12 940.47 1940.34 793.05 2033.94"></polygon>
                    <polygon id="Shape" fill="#707770" points="1122.48 2144.49 1199.7 2017.39 1114.06 1890.72"></polygon>
                    <polygon id="Shape" fill="#9FA369" points="1122.48 2144.49 940.47 1940.34 964.06 2126.12"></polygon>
                    <polygon id="Shape" fill="#898E7D" points="1122.48 2144.49 1114.06 1890.72 940.47 1940.34"></polygon>
                    <polygon id="Shape" fill="#A58639" points="614.92 2007.17 598.47 1894.94 410.39 1984.44"></polygon>
                    <polygon id="Shape" fill="#9E5721" points="59.73 2056.8 274.38 1933.45 67.27 1849.36"></polygon>
                    <polygon id="Shape" fill="#A58E27" points="793.05 2033.94 598.47 1894.94 614.92 2007.17"></polygon>
                    <polygon id="Shape" fill="#C5B999" points="793.05 2033.94 808.72 1846.22 598.47 1894.94"></polygon>
                    <polygon id="Shape" fill="#C3C2A3" points="793.05 2033.94 940.47 1940.34 808.72 1846.22"></polygon>
                    <polygon id="Shape" fill="#B49B68" points="940.47 1940.34 1114.06 1890.72 996.33 1855.86"></polygon>
                    <polygon id="Shape" fill="#AC801A" points="410.39 1984.44 598.47 1894.94 479.24 1802.02"></polygon>
                    <polygon id="Shape" fill="#7D6B63" points="1199.7 2017.39 1320.69 1935.5 1114.06 1890.72"></polygon>
                    <polygon id="Shape" fill="#A96E0E" points="410.39 1984.44 294.86 1822.21 274.38 1933.45"></polygon>
                    <polygon id="Shape" fill="#B1681D" points="410.39 1984.44 479.24 1802.02 294.86 1822.21"></polygon>
                    <polygon id="Shape" fill="#9C8958" points="1114.06 1890.72 1365.41 1788.66 1141.34 1697.58"></polygon>
                    <polygon id="Shape" fill="#A94E19" points="274.38 1933.45 294.86 1822.21 67.27 1849.36"></polygon>
                    <polygon id="Shape" fill="#72524D" points="1320.69 1935.5 1365.41 1788.66 1114.06 1890.72"></polygon>
                    <polygon id="Shape" fill="#C8B995" points="940.47 1940.34 996.33 1855.86 808.72 1846.22"></polygon>
                    <polygon id="Shape" fill="#B49C78" points="1365.41 1788.66 1334.33 1711.56 1141.34 1697.58"></polygon>
                    <polygon id="Shape" fill="#C1A887" points="996.33 1855.86 939.47 1721.63 808.72 1846.22"></polygon>
                    <polygon id="Shape" fill="#954B1E" points="598.47 1894.94 808.72 1846.22 570.52 1664.86"></polygon>
                    <polygon id="Shape" fill="#A55D43" points="1114.06 1890.72 1141.34 1697.58 996.33 1855.86"></polygon>
                    <polygon id="Shape" fill="#943B05" points="598.47 1894.94 570.52 1664.86 479.24 1802.02"></polygon>
                    <polygon id="Shape" fill="#A23426" points="67.27 1849.36 294.86 1822.21 226.7 1618.61"></polygon>
                    <polygon id="Shape" fill="#C16D23" points="294.86 1822.21 479.24 1802.02 447.47 1702.29"></polygon>
                    <polygon id="Shape" fill="#BE802D" points="808.72 1846.22 865.52 1692.38 570.52 1664.86"></polygon>
                    <polygon id="Shape" fill="#CA9772" points="808.72 1846.22 939.47 1721.63 865.52 1692.38"></polygon>
                    <polygon id="Shape" fill="#9E343A" points="67.27 1849.36 226.7 1618.61 0.74 1768.7"></polygon>
                    <polygon id="Shape" fill="#BC8382" points="996.33 1855.86 1141.34 1697.58 939.47 1721.63"></polygon>
                    <polygon id="Shape" fill="#AB2C44" points="0.74 1768.7 226.7 1618.61 53.8 1584.92"></polygon>
                    <polygon id="Shape" fill="#B34C0A" points="865.52 1692.38 748.2 1538.29 570.52 1664.86"></polygon>
                    <polygon id="Shape" fill="#AB4821" points="294.86 1822.21 447.47 1702.29 226.7 1618.61"></polygon>
                    <polygon id="Shape" fill="#CA782C" points="479.24 1802.02 570.52 1664.86 447.47 1702.29"></polygon>
                    <polygon id="Shape" fill="#BA5B30" points="1141.34 1697.58 1178.75 1530.06 938.09 1452.4"></polygon>
                    <polygon id="Shape" fill="#C16C37" points="1334.33 1711.56 1178.75 1530.06 1141.34 1697.58"></polygon>
                    <polygon id="Shape" fill="#AF472A" points="939.47 1721.63 1141.34 1697.58 938.09 1452.4"></polygon>
                    <polygon id="Shape" fill="#AF403B" points="447.47 1702.29 469.87 1535.36 226.7 1618.61"></polygon>
                    <polygon id="Shape" fill="#BF552A" points="1334.33 1711.56 1316.68 1515.84 1178.75 1530.06"></polygon>
                    <polygon id="Shape" fill="#C19479" points="939.47 1721.63 938.09 1452.4 865.52 1692.38"></polygon>
                    <polygon id="Shape" fill="#BB5D76" points="226.7 1618.61 469.87 1535.36 245.76 1511.03"></polygon>
                    <polygon id="Shape" fill="#AD451E" points="447.47 1702.29 570.52 1664.86 469.87 1535.36"></polygon>
                    <polygon id="Shape" fill="#BF8255" points="865.52 1692.38 938.09 1452.4 748.2 1538.29"></polygon>
                    <polygon id="Shape" fill="#AF3506" points="570.52 1664.86 748.2 1538.29 646.67 1463.21"></polygon>
                    <polygon id="Shape" fill="#AA2E26" points="570.52 1664.86 646.67 1463.21 469.87 1535.36"></polygon>
                    <polygon id="Shape" fill="#A91B42" points="226.7 1618.61 245.76 1511.03 53.8 1584.92"></polygon>
                    <polygon id="Shape" fill="#A90E3F" points="53.8 1584.92 245.76 1511.03 52.11 1451.42"></polygon>
                    <polygon id="Shape" fill="#C78A73" points="1178.75 1530.06 1049.59 1341.7 938.09 1452.4"></polygon>
                    <polygon id="Shape" fill="#C08C67" points="748.2 1538.29 938.09 1452.4 809.57 1355.63"></polygon>
                    <polygon id="Shape" fill="#BE4F37" points="1178.75 1530.06 1316.68 1515.84 1217.44 1314.69"></polygon>
                    <polygon id="Shape" fill="#AB2921" points="469.87 1535.36 646.67 1463.21 601.49 1313.68"></polygon>
                    <polygon id="Shape" fill="#B2313B" points="469.87 1535.36 286.2 1272.11 245.76 1511.03"></polygon>
                    <polygon id="Shape" fill="#BB4C47" points="469.87 1535.36 470.37 1262.53 286.2 1272.11"></polygon>
                    <polygon id="Shape" fill="#AE4E1B" points="748.2 1538.29 809.57 1355.63 646.67 1463.21"></polygon>
                    <polygon id="Shape" fill="#A9251A" points="469.87 1535.36 601.49 1313.68 470.37 1262.53"></polygon>
                    <polygon id="Shape" fill="#A31758" points="245.76 1511.03 69.8 1321.34 52.11 1451.42"></polygon>
                    <polygon id="Shape" fill="#B44B2B" points="1178.75 1530.06 1217.44 1314.69 1049.59 1341.7"></polygon>
                    <polygon id="Shape" fill="#A42260" points="245.76 1511.03 286.2 1272.11 69.8 1321.34"></polygon>
                    <polygon id="Shape" fill="#AB2C04" points="1316.68 1515.84 1475.63 1411.95 1217.44 1314.69"></polygon>
                    <polygon id="Shape" fill="#AA4201" points="1475.63 1411.95 1371.47 1239.43 1217.44 1314.69"></polygon>
                    <polygon id="Shape" fill="#A94622" points="646.67 1463.21 809.57 1355.63 601.49 1313.68"></polygon>
                    <polygon id="Shape" fill="#BF7968" points="938.09 1452.4 1049.59 1341.7 809.57 1355.63"></polygon>
                    <polygon id="Shape" fill="#B2662D" points="809.57 1355.63 1049.59 1341.7 844.83 1191.93"></polygon>
                    <polygon id="Shape" fill="#B86023" points="601.49 1313.68 844.83 1191.93 685.96 1105.84"></polygon>
                    <polygon id="Shape" fill="#AA1A63" points="69.8 1321.34 286.2 1272.11 88.65 1172.56"></polygon>
                    <polygon id="Shape" fill="#BA894C" points="1049.59 1341.7 1217.44 1314.69 1161.34 1091.08"></polygon>
                    <polygon id="Shape" fill="#C07A21" points="809.57 1355.63 844.83 1191.93 601.49 1313.68"></polygon>
                    <polygon id="Shape" fill="#A25019" points="1049.59 1341.7 936.86 1067.94 844.83 1191.93"></polygon>
                    <polygon id="Shape" fill="#B7813C" points="1049.59 1341.7 1161.34 1091.08 936.86 1067.94"></polygon>
                    <polygon id="Shape" fill="#B01D67" points="286.2 1272.11 253.34 1125.89 88.65 1172.56"></polygon>
                    <polygon id="Shape" fill="#AE6800" points="1217.44 1314.69 1371.47 1239.43 1363.06 1179.22"></polygon>
                    <polygon id="Shape" fill="#BB291E" points="601.49 1313.68 514.72 1135.69 470.37 1262.53"></polygon>
                    <polygon id="Shape" fill="#9B0C5D" points="69.8 1321.34 88.65 1172.56 0.74 1266.47"></polygon>
                    <polygon id="Shape" fill="#BFA431" points="1217.44 1314.69 1363.06 1179.22 1161.34 1091.08"></polygon>
                    <polygon id="Shape" fill="#B15230" points="601.49 1313.68 685.96 1105.84 514.72 1135.69"></polygon>
                    <polygon id="Shape" fill="#990933" points="286.2 1272.11 470.37 1262.53 253.34 1125.89"></polygon>
                    <polygon id="Shape" fill="#9B0C25" points="470.37 1262.53 514.72 1135.69 253.34 1125.89"></polygon>
                    <polygon id="Shape" fill="#AA246E" points="0.74 1266.47 88.65 1172.56 0.74 1176.88"></polygon>
                    <polygon id="Shape" fill="#930C1B" points="514.72 1135.69 455.26 1014.92 253.34 1125.89"></polygon>
                    <polygon id="Shape" fill="#9B1855" points="0.74 1176.88 88.65 1172.56 0.74 1084.87"></polygon>
                    <polygon id="Shape" fill="#B38E37" points="1363.06 1179.22 1364.94 929 1161.34 1091.08"></polygon>
                    <polygon id="Shape" fill="#BA926B" points="844.83 1191.93 936.86 1067.94 685.96 1105.84"></polygon>
                    <polygon id="Shape" fill="#BCA888" points="685.96 1105.84 936.86 1067.94 676.44 1024.57"></polygon>
                    <polygon id="Shape" fill="#9E1658" points="88.65 1172.56 253.34 1125.89 48.39 948.1"></polygon>
                    <polygon id="Shape" fill="#A41A64" points="88.65 1172.56 48.39 948.1 0.74 1084.87"></polygon>
                    <polygon id="Shape" fill="#B68D3F" points="1161.34 1091.08 1099.41 953.41 936.86 1067.94"></polygon>
                    <polygon id="Shape" fill="#C6A95F" points="514.72 1135.69 685.96 1105.84 676.44 1024.57"></polygon>
                    <polygon id="Shape" fill="#C2A46F" points="936.86 1067.94 804.86 896.11 676.44 1024.57"></polygon>
                    <polygon id="Shape" fill="#9D2929" points="253.34 1125.89 455.26 1014.92 297.74 893.82"></polygon>
                    <polygon id="Shape" fill="#C7A367" points="514.72 1135.69 676.44 1024.57 455.26 1014.92"></polygon>
                    <polygon id="Shape" fill="#83022C" points="253.34 1125.89 297.74 893.82 48.39 948.1"></polygon>
                    <polygon id="Shape" fill="#C2A94E" points="936.86 1067.94 1099.41 953.41 1047.83 913.54"></polygon>
                    <polygon id="Shape" fill="#B78E17" points="1161.34 1091.08 1364.94 929 1099.41 953.41"></polygon>
                    <polygon id="Shape" fill="#C69054" points="676.44 1024.57 646.75 833.75 455.26 1014.92"></polygon>
                    <polygon id="Shape" fill="#BFA86F" points="936.86 1067.94 1047.83 913.54 804.86 896.11"></polygon>
                    <polygon id="Shape" fill="#B8AB25" points="1099.41 953.41 1364.94 929 1186.24 752.9"></polygon>
                    <polygon id="Shape" fill="#A97A2F" points="676.44 1024.57 804.86 896.11 646.75 833.75"></polygon>
                    <polygon id="Shape" fill="#BEB664" points="1047.83 913.54 985.64 793.81 804.86 896.11"></polygon>
                    <polygon id="Shape" fill="#69150B" points="455.26 1014.92 450.79 734.59 297.74 893.82"></polygon>
                    <polygon id="Shape" fill="#84522E" points="455.26 1014.92 646.75 833.75 450.79 734.59"></polygon>
                    <polygon id="Shape" fill="#903952" points="48.39 948.1 297.74 893.82 71.27 781.86"></polygon>
                    <polygon id="Shape" fill="#BBBB56" points="1364.94 929 1270.43 714.57 1186.24 752.9"></polygon>
                    <polygon id="Shape" fill="#A6A118" points="1099.41 953.41 1186.24 752.9 1047.83 913.54"></polygon>
                    <polygon id="Shape" fill="#8F5657" points="297.74 893.82 279.35 718.9 71.27 781.86"></polygon>
                    <polygon id="Shape" fill="#B3AA5C" points="804.86 896.11 985.64 793.81 860.71 726.34"></polygon>
                    <polygon id="Shape" fill="#B5B668" points="1364.94 929 1469.81 815.97 1270.43 714.57"></polygon>
                    <polygon id="Shape" fill="#BABB29" points="1047.83 913.54 1186.24 752.9 985.64 793.81"></polygon>
                    <polygon id="Shape" fill="#804542" points="297.74 893.82 450.79 734.59 279.35 718.9"></polygon>
                    <polygon id="Shape" fill="#A2873D" points="804.86 896.11 860.71 726.34 646.75 833.75"></polygon>
                    <polygon id="Shape" fill="#B1B41E" points="1469.81 815.97 1347.84 642.22 1270.43 714.57"></polygon>
                    <polygon id="Shape" fill="#A28F3A" points="646.75 833.75 654.71 591.78 450.79 734.59"></polygon>
                    <polygon id="Shape" fill="#918E6D" points="646.75 833.75 860.71 726.34 654.71 591.78"></polygon>
                    <polygon id="Shape" fill="#60484B" points="71.27 781.86 279.35 718.9 54.82 622.74"></polygon>
                    <polygon id="Shape" fill="#C0C12D" points="985.64 793.81 1186.24 752.9 1012.57 565.89"></polygon>
                    <polygon id="Shape" fill="#594432" points="450.79 734.59 420.88 658.3 279.35 718.9"></polygon>
                    <polygon id="Shape" fill="#A3AC3D" points="985.64 793.81 879.19 637.33 860.71 726.34"></polygon>
                    <polygon id="Shape" fill="#A7B33F" points="985.64 793.81 1012.57 565.89 879.19 637.33"></polygon>
                    <polygon id="Shape" fill="#9BB838" points="1186.24 752.9 1186.13 555.05 1012.57 565.89"></polygon>
                    <polygon id="Shape" fill="#729A64" points="860.71 726.34 879.19 637.33 654.71 591.78"></polygon>
                    <polygon id="Shape" fill="#6F6B3C" points="450.79 734.59 654.71 591.78 420.88 658.3"></polygon>
                    <polygon id="Shape" fill="#819F0B" points="1186.24 752.9 1270.43 714.57 1186.13 555.05"></polygon>
                    <polygon id="Shape" fill="#4B5256" points="279.35 718.9 234.93 464.96 54.82 622.74"></polygon>
                    <polygon id="Shape" fill="#565241" points="279.35 718.9 420.88 658.3 351.92 555.71"></polygon>
                    <polygon id="Shape" fill="#354141" points="279.35 718.9 351.92 555.71 234.93 464.96"></polygon>
                    <polygon id="Shape" fill="#62A565" points="879.19 637.33 813.34 502.91 654.71 591.78"></polygon>
                    <polygon id="Shape" fill="#8CA010" points="1270.43 714.57 1347.84 642.22 1186.13 555.05"></polygon>
                    <polygon id="Shape" fill="#56AA62" points="654.71 591.78 813.34 502.91 696.9 492.21"></polygon>
                    <polygon id="Shape" fill="#617982" points="54.82 622.74 234.93 464.96 142.41 453.26"></polygon>
                    <polygon id="Shape" fill="#61970B" points="1347.84 642.22 1314.11 472.94 1186.13 555.05"></polygon>
                    <polygon id="Shape" fill="#436048" points="420.88 658.3 654.71 591.78 455.03 434.94"></polygon>
                    <polygon id="Shape" fill="#5C6B60" points="420.88 658.3 455.03 434.94 351.92 555.71"></polygon>
                    <polygon id="Shape" fill="#B6BB65" points="879.19 637.33 1012.57 565.89 813.34 502.91"></polygon>
                    <polygon id="Shape" fill="#326B54" points="654.71 591.78 696.9 492.21 455.03 434.94"></polygon>
                    <polygon id="Shape" fill="#556E66" points="54.82 622.74 142.41 453.26 0.74 507.42"></polygon>
                    <polygon id="Shape" fill="#629809" points="1186.13 555.05 1314.11 472.94 1195.57 492.39"></polygon>
                    <polygon id="Shape" fill="#96B76A" points="1012.57 565.89 1007.83 430.4 813.34 502.91"></polygon>
                    <polygon id="Shape" fill="#42940E" points="1012.57 565.89 1186.13 555.05 1195.57 492.39"></polygon>
                    <polygon id="Shape" fill="#499B14" points="1012.57 565.89 1195.57 492.39 1007.83 430.4"></polygon>
                    <polygon id="Shape" fill="#465F6E" points="351.92 555.71 455.03 434.94 234.93 464.96"></polygon>
                    <polygon id="Shape" fill="#306160" points="696.9 492.21 501.5 319.68 455.03 434.94"></polygon>
                    <polygon id="Shape" fill="#406691" points="234.93 464.96 455.03 434.94 334.04 320.59"></polygon>
                    <polygon id="Shape" fill="#275D5D" points="696.9 492.21 614.31 272.46 501.5 319.68"></polygon>
                    <polygon id="Shape" fill="#8CC363" points="1195.57 492.39 1157.16 304.52 1007.83 430.4"></polygon>
                    <polygon id="Shape" fill="#589C78" points="813.34 502.91 849.38 271.53 696.9 492.21"></polygon>
                    <polygon id="Shape" fill="#48A66E" points="813.34 502.91 1007.83 430.4 849.38 271.53"></polygon>
                    <polygon id="Shape" fill="#435D62" points="0.74 507.42 142.41 453.26 0.74 422.69"></polygon>
                    <polygon id="Shape" fill="#498F7B" points="696.9 492.21 849.38 271.53 614.31 272.46"></polygon>
                    <polygon id="Shape" fill="#ACC64F" points="1195.57 492.39 1314.11 472.94 1157.16 304.52"></polygon>
                    <polygon id="Shape" fill="#67B261" points="1314.11 472.94 1285.02 255.89 1157.16 304.52"></polygon>
                    <polygon id="Shape" fill="#365279" points="0.74 422.69 120.46 269.05 0.74 309.7"></polygon>
                    <polygon id="Shape" fill="#435880" points="142.41 453.26 120.46 269.05 0.74 422.69"></polygon>
                    <polygon id="Shape" fill="#3F758B" points="234.93 464.96 120.46 269.05 142.41 453.26"></polygon>
                    <polygon id="Shape" fill="#538BB0" points="234.93 464.96 334.04 320.59 120.46 269.05"></polygon>
                    <polygon id="Shape" fill="#63C495" points="1007.83 430.4 1157.16 304.52 1022.19 226.03"></polygon>
                    <polygon id="Shape" fill="#51AD82" points="1007.83 430.4 1022.19 226.03 849.38 271.53"></polygon>
                    <polygon id="Shape" fill="#677793" points="455.03 434.94 501.5 319.68 334.04 320.59"></polygon>
                    <polygon id="Shape" fill="#A7B69C" points="614.31 272.46 849.38 271.53 688.99 143.38"></polygon>
                    <polygon id="Shape" fill="#1E3165" points="0.74 299.32 120.46 269.05 0.74 293.31"></polygon>
                    <polygon id="Shape" fill="#122654" points="0.74 309.7 120.46 269.05 0.74 299.32"></polygon>
                    <polygon id="Shape" fill="#617C87" points="501.5 319.68 614.31 272.46 442.08 128.85"></polygon>
                    <polygon id="Shape" fill="#2E4186" points="334.04 320.59 162.86 133.29 120.46 269.05"></polygon>
                    <polygon id="Shape" fill="#283678" points="334.04 320.59 304.41 116.2 162.86 133.29"></polygon>
                    <polygon id="Shape" fill="#20628C" points="334.04 320.59 501.5 319.68 442.08 128.85"></polygon>
                    <polygon id="Shape" fill="#2477A6" points="334.04 320.59 442.08 128.85 304.41 116.2"></polygon>
                    <polygon id="Shape" fill="#1E3271" points="0.74 293.31 120.46 269.05 0.74 179.61"></polygon>
                    <polygon id="Shape" fill="#41A35F" points="1157.16 304.52 1285.02 255.89 1113.95 96.06"></polygon>
                    <polygon id="Shape" fill="#35A777" points="1157.16 304.52 1113.95 96.06 1022.19 226.03"></polygon>
                    <polygon id="Shape" fill="#4FA57E" points="849.38 271.53 1022.19 226.03 832.52 53.22"></polygon>
                    <polygon id="Shape" fill="#232A6F" points="120.46 269.05 162.86 133.29 0.74 179.61"></polygon>
                    <polygon id="Shape" fill="#73AA95" points="849.38 271.53 832.52 53.22 688.99 143.38"></polygon>
                    <polygon id="Shape" fill="#588391" points="614.31 272.46 688.99 143.38 442.08 128.85"></polygon>
                    <polygon id="Shape" fill="#3CB698" points="1285.02 255.89 1301.08 41.71 1113.95 96.06"></polygon>
                    <polygon id="Shape" fill="#4FA983" points="1022.19 226.03 1042.86 72.07 832.52 53.22"></polygon>
                    <polygon id="Shape" fill="#486F7D" points="688.99 143.38 554.69 0.61 442.08 128.85"></polygon>
                    <polygon id="Shape" fill="#298B71" points="1042.86 72.07 945.58 0.61 832.52 53.22"></polygon>
                    <polygon id="Shape" fill="#36AD74" points="1022.19 226.03 1113.95 96.06 1042.86 72.07"></polygon>
                    <polygon id="Shape" fill="#3FBEB0" points="1113.95 96.06 1301.08 41.71 1161.03 0.61"></polygon>
                    <polygon id="Shape" fill="#2C7F82" points="688.99 143.38 639.15 0.61 554.69 0.61"></polygon>
                    <polygon id="Shape" fill="#443263" points="0.74 179.61 162.86 133.29 0.74 90.11"></polygon>
                    <polygon id="Shape" fill="#48AF90" points="1301.08 41.71 1268.83 0.61 1161.03 0.61"></polygon>
                    <polygon id="Shape" fill="#0C1246" points="0.74 75.4 155.42 0.61 21.06 0.61"></polygon>
                    <polygon id="Shape" fill="#00065E" points="304.41 116.2 267.07 0.61 201.81 0.61"></polygon>
                    <polygon id="Shape" fill="#29537F" points="442.08 128.85 554.69 0.61 482.31 0.61"></polygon>
                    <polygon id="Shape" fill="#323C80" points="442.08 128.85 319.88 0.61 304.41 116.2"></polygon>
                    <polygon id="Shape" fill="#6A2270" points="162.86 133.29 0.74 75.4 0.74 90.11"></polygon>
                    <polygon id="Shape" fill="#212164" points="162.86 133.29 155.42 0.61 0.74 75.4"></polygon>
                    <polygon id="Shape" fill="#131156" points="162.86 133.29 304.41 116.2 201.81 0.61"></polygon>
                    <polygon id="Shape" fill="#72B1B6" points="688.99 143.38 832.52 53.22 738.34 0.61"></polygon>
                    <polygon id="Shape" fill="#4790A0" points="688.99 143.38 738.34 0.61 639.15 0.61"></polygon>
                    <polygon id="Shape" fill="#243172" points="442.08 128.85 482.31 0.61 319.88 0.61"></polygon>
                    <polygon id="Shape" fill="#060A57" points="162.86 133.29 201.81 0.61 155.42 0.61"></polygon>
                    <polygon id="Shape" fill="#2A9778" points="1042.86 72.07 1003.88 0.61 945.58 0.61"></polygon>
                    <polygon id="Shape" fill="#000752" points="304.41 116.2 319.88 0.61 267.07 0.61"></polygon>
                    <polygon id="Shape" fill="#0F7D46" points="1113.95 96.06 1116.14 0.61 1042.86 72.07"></polygon>
                    <polygon id="Shape" fill="#1C8E68" points="1113.95 96.06 1161.03 0.61 1116.14 0.61"></polygon>
                    <polygon id="Shape" fill="#3C968B" points="832.52 53.22 945.58 0.61 828.61 0.61"></polygon>
                    <polygon id="Shape" fill="#4EAAB3" points="832.52 53.22 828.61 0.61 738.34 0.61"></polygon>
                    <polygon id="Shape" fill="#1A9A6B" points="1042.86 72.07 1116.14 0.61 1003.88 0.61"></polygon>
                    <polygon id="Shape" fill="#097760" points="1301.08 41.71 1308.78 0.61 1268.83 0.61"></polygon>
                </g>
            </g>
        </g>
    </g>
</svg>
