
<svg width="240px" height="240px" viewBox="0 0 240 240" version="1.1" xmlns="http://www.w3.org/2000/svg" xmlns:xlink="http://www.w3.org/1999/xlink">
    <!-- Generator: Sketch 51.2 (57519) - http://www.bohemiancoding.com/sketch -->
    <desc>Created with Sketch.</desc>
    <defs></defs>
    <g id="Page-1" stroke="none" stroke-width="1" fill="none" fill-rule="evenodd">
        <g id="UI-for-SOAP-01" transform="translate(-534.000000, -824.000000)" fill-rule="nonzero">
            <g id="inner-circle" transform="translate(534.000000, 824.000000)">
                <circle id="Oval" fill="#FFFFFF" cx="120" cy="120.07" r="119.83"></circle>
                <circle id="Oval" fill="#FF8700" cx="120" cy="120.07" r="28.1"></circle>
                <path d="M120.54,195 L120.45,195 L120.35,195 C104.68,202.75 89.06,202.69 74.95,198.86 C89.02,212.86 107.71,220.96 120.45,225.14 C133.18,220.96 151.87,212.84 165.94,198.86 C151.83,202.7 136.21,202.76 120.54,195 Z" id="Shape" fill="#292663"></path>
                <path d="M185.39,157.46 L185.31,157.46 C185.305059,157.4965 185.305059,157.5335 185.31,157.57 C184.19,175.02 176.31,188.51 165.95,198.82 C185.1,193.62 201.47,181.49 211.46,172.56 C214.21,159.44 216.52,139.2 211.46,120.02 C207.7,134.2 199.94,147.76 185.39,157.46 Z" id="Shape" fill="#292663"></path>
                <path d="M185.3,157.62 C185.295059,157.5835 185.295059,157.5465 185.3,157.51 C173.35,165.45 160.83,169.28 149.11,169.73 C142.86,179.65 133.28,188.59 120.44,194.96 L120.53,194.96 C136.2,202.71 151.82,202.65 165.93,198.82 C176.31,188.56 184.18,175.07 185.3,157.62 Z" id="Shape" fill="#035BA9"></path>
                <path d="M185.3,82.52 C185.295071,82.5531511 185.295071,82.5868489 185.3,82.62 L185.38,82.68 C199.93,92.38 207.69,105.93 211.38,120.07 C216.46,100.89 214.15,80.64 211.38,67.53 C201.38,58.59 185.02,46.46 165.87,41.27 C176.31,51.57 184.18,65.06 185.3,82.52 Z" id="Shape" fill="#292663"></path>
                <path d="M185.39,82.68 L185.31,82.62 C186.21,96.93 183.31,109.69 177.79,120.07 C183.26,130.44 186.21,143.2 185.31,157.51 L185.39,157.51 C199.94,147.81 207.7,134.25 211.39,120.12 C207.7,105.93 199.94,92.38 185.39,82.68 Z" id="Shape" fill="#035BA9"></path>
                <path d="M177.79,120.07 C173.235939,128.945656 166.353647,136.415587 157.88,141.68 C157.554092,151.650775 154.526329,161.345838 149.12,169.73 C160.84,169.28 173.36,165.45 185.31,157.51 C186.21,143.2 183.26,130.44 177.79,120.07 Z" id="Shape" fill="#037BC0"></path>
                <path d="M120.35,45.13 L120.45,45.13 L120.54,45.13 C136.21,37.37 151.83,37.44 165.94,41.27 C151.87,27.27 133.18,19.16 120.45,14.99 C107.71,19.16 89.02,27.28 74.95,41.27 C89.06,37.44 104.68,37.37 120.35,45.13 Z" id="Shape" fill="#292663"></path>
                <path d="M120.54,45.13 L120.45,45.13 C133.29,51.51 142.87,60.44 149.12,70.37 C160.84,70.82 173.36,74.64 185.31,82.58 C185.305071,82.5468489 185.305071,82.5131511 185.31,82.48 C184.19,65.02 176.31,51.53 165.95,41.23 C151.83,37.44 136.21,37.37 120.54,45.13 Z" id="Shape" fill="#035BA9"></path>
                <path d="M177.79,120.07 C183.26,109.69 186.21,96.93 185.31,82.62 C173.36,74.68 160.84,70.86 149.12,70.41 C154.527705,78.7935185 157.555589,88.4889714 157.88,98.46 C166.353647,103.724413 173.235939,111.194344 177.79,120.07 Z" id="Shape" fill="#037BC0"></path>
                <path d="M157.88,98.46 C158.091933,105.972706 156.370236,113.413881 152.88,120.07 C156.370236,126.726119 158.091933,134.167294 157.88,141.68 C166.353647,136.415587 173.235939,128.945656 177.79,120.07 C173.235939,111.194344 166.353647,103.724413 157.88,98.46 Z" id="Shape" fill="#00AC9C"></path>
                <path d="M55.5,82.68 L55.58,82.62 C55.5849288,82.5868489 55.5849288,82.5531511 55.58,82.52 C56.7,65.06 64.58,51.57 74.94,41.27 C55.79,46.46 39.42,58.59 29.43,67.53 C26.68,80.64 24.37,100.89 29.43,120.07 C33.2,105.93 41,92.38 55.5,82.68 Z" id="Shape" fill="#292663"></path>
                <path d="M55.59,82.52 C55.5949288,82.5531511 55.5949288,82.5868489 55.59,82.62 C67.54,74.68 80.06,70.86 91.78,70.41 C98.03,60.48 107.61,51.55 120.46,45.17 L120.36,45.17 C104.69,37.41 89.07,37.48 74.96,41.31 C64.58,51.57 56.71,65.06 55.59,82.52 Z" id="Shape" fill="#035BA9"></path>
                <path d="M120.45,76.85 C129.244694,72.1400788 139.155876,69.913779 149.12,70.41 C142.87,60.48 133.29,51.55 120.45,45.17 C107.6,51.55 98.02,60.48 91.77,70.41 C101.737214,69.9149854 111.651295,72.1411597 120.45,76.85 Z" id="Shape" fill="#037BC0"></path>
                <path d="M120.45,76.85 C127.06402,80.4287971 132.648849,85.6452072 136.67,92 C144.179659,92.30814 151.483756,94.5431042 157.88,98.49 C157.555589,88.5189714 154.527705,78.8235185 149.12,70.44 C139.158653,69.9345859 129.247635,72.150478 120.45,76.85 Z" id="Shape" fill="#00AC9C"></path>
                <path d="M152.89,120.07 C156.380236,113.413881 158.101933,105.972706 157.89,98.46 C151.487934,94.5220151 144.180375,92.2973766 136.67,92 C139.59864,96.7018235 141.547596,101.946657 142.4,107.42 C146.71145,110.888659 150.279216,115.191065 152.89,120.07 Z" id="Shape" fill="#8BC53F"></path>
                <path d="M55.59,157.62 C55.594941,157.5835 55.594941,157.5465 55.59,157.51 L55.51,157.51 C40.96,147.81 33.21,134.25 29.51,120.12 C24.43,139.3 26.74,159.54 29.51,172.66 C39.51,181.59 55.87,193.72 75.02,198.92 C64.58,188.56 56.71,175.07 55.59,157.62 Z" id="Shape" fill="#292663"></path>
                <path d="M120.35,195 L120.45,195 C107.6,188.63 98.02,179.69 91.77,169.77 C80.05,169.32 67.53,165.49 55.58,157.55 C55.584941,157.5865 55.584941,157.6235 55.58,157.66 C56.7,175.11 64.58,188.6 74.94,198.91 C89.06,202.7 104.68,202.76 120.35,195 Z" id="Shape" fill="#035BA9"></path>
                <path d="M120.45,163.29 C111.649528,167.99409 101.73678,170.219965 91.77,169.73 C98.02,179.65 107.6,188.59 120.45,194.96 C133.29,188.59 142.87,179.65 149.12,169.73 C139.156137,170.223184 129.245757,167.997064 120.45,163.29 Z" id="Shape" fill="#037BC0"></path>
                <path d="M136.67,148.16 C132.648282,154.509185 127.063175,159.718967 120.45,163.29 C129.245757,167.997064 139.156137,170.223184 149.12,169.73 C154.526329,161.345838 157.554092,151.650775 157.88,141.68 C151.482977,145.623792 144.178833,147.855327 136.67,148.16 Z" id="Shape" fill="#00AC9C"></path>
                <path d="M152.89,120.07 C150.28236,124.956742 146.714317,129.266285 142.4,132.74 C141.549469,138.213832 139.600378,143.45903 136.67,148.16 C144.178833,147.855327 151.482977,145.623792 157.88,141.68 C158.095011,134.168171 156.376769,126.727045 152.89,120.07 Z" id="Shape" fill="#8BC53F"></path>
                <path d="M55.5,157.46 L55.58,157.46 C54.68,143.15 57.58,130.39 63.1,120.02 C57.63,109.64 54.68,96.88 55.58,82.57 L55.5,82.63 C40.95,92.33 33.2,105.88 29.5,120.02 C33.2,134.2 41,147.76 55.5,157.46 Z" id="Shape" fill="#035BA9"></path>
                <path d="M63.1,120.07 C57.63,130.44 54.68,143.2 55.58,157.51 C67.53,165.45 80.05,169.28 91.77,169.73 C86.3601428,161.346863 83.3289008,151.651728 83,141.68 C74.5329408,136.410675 67.6550541,128.941773 63.1,120.07 Z" id="Shape" fill="#037BC0"></path>
                <path d="M120.45,163.29 C113.831848,159.72219 108.242754,154.511901 104.22,148.16 C96.7077455,147.857028 89.3999489,145.625429 83,141.68 C83.3259079,151.650775 86.3536708,161.345838 91.76,169.73 C101.730131,170.221793 111.646579,167.995863 120.45,163.29 Z" id="Shape" fill="#00AC9C"></path>
                <path d="M120.45,145.42 C115.280248,147.418901 109.759448,148.35094 104.22,148.16 C108.242754,154.511901 113.831848,159.72219 120.45,163.29 C127.063175,159.718967 132.648282,154.509185 136.67,148.16 C131.133749,148.3518 125.616045,147.419709 120.45,145.42 Z" id="Shape" fill="#8BC53F"></path>
                <path d="M83,98.46 C83.3244105,88.4889714 86.3522953,78.7935185 91.76,70.41 C80.04,70.86 67.52,74.68 55.57,82.62 C54.67,96.93 57.57,109.69 63.09,120.07 C67.6477994,111.196954 74.5292594,103.727926 83,98.46 Z" id="Shape" fill="#037BC0"></path>
                <path d="M83,141.68 C82.7880668,134.167294 84.5097641,126.726119 88,120.07 C84.5097641,113.413881 82.7880668,105.972706 83,98.46 C74.5292594,103.727926 67.6477994,111.196954 63.09,120.07 C67.6477994,128.943046 74.5292594,136.412074 83,141.68 Z" id="Shape" fill="#00AC9C"></path>
                <path d="M88,120.07 C84.5097641,126.726119 82.7880668,134.167294 83,141.68 C89.397023,145.623792 96.701167,147.855327 104.21,148.16 C101.279622,143.45903 99.3305307,138.213832 98.48,132.74 C94.1692918,129.265298 90.6047062,124.955823 88,120.07 Z" id="Shape" fill="#8BC53F"></path>
                <path d="M104.22,92 C108.246165,85.6534967 113.83464,80.4472286 120.45,76.88 C111.651295,72.1711597 101.737214,69.9449854 91.77,70.44 C86.3639435,78.8138292 83.3327978,88.4982879 83,98.46 C89.4020659,94.5220151 96.7096245,92.2973766 104.22,92 Z" id="Shape" fill="#00AC9C"></path>
                <path d="M98.49,107.39 C99.3462994,101.927046 101.295119,96.6927808 104.22,92 C96.7096245,92.2973766 89.4020659,94.5220151 83,98.46 C82.7880668,105.972706 84.5097641,113.413881 88,120.07 C90.6074422,115.180278 94.1754121,110.867422 98.49,107.39 Z" id="Shape" fill="#8BC53F"></path>
                <path d="M120.45,94.71 C125.62077,92.730086 131.136442,91.8085403 136.67,92 C132.644879,85.656207 127.060389,80.4504428 120.45,76.88 C113.83464,80.4472286 108.246165,85.6534967 104.22,92 C109.756759,91.8093719 115.275536,92.7308683 120.45,94.71 Z" id="Shape" fill="#8BC53F"></path>
                <path d="M142.4,107.39 C141.543701,101.927046 139.594881,96.6927808 136.67,92 C131.134411,91.8180989 125.618671,92.7498577 120.45,94.74 C125.06,94.74 130.94,101.91 130.94,101.91 C130.94,101.91 140.18,103.57 142.4,107.42 C144.62,111.27 141.4,120.1 141.4,120.1 C141.4,120.1 144.52,129.04 142.4,132.77 C140.28,136.5 130.94,138.28 130.94,138.28 C130.94,138.28 125.06,145.45 120.45,145.45 C125.616045,147.449709 131.133749,148.3818 136.67,148.19 C139.600378,143.48903 141.549469,138.243832 142.4,132.77 C146.714317,129.296285 150.28236,124.986742 152.89,120.1 C150.285907,115.199491 146.717732,110.876183 142.4,107.39 Z" id="Shape" fill="#FFF100"></path>
                <path d="M99.45,120.07 C99.45,120.07 96.33,111.07 98.45,107.39 C100.57,103.71 110,101.88 110,101.88 C110,101.88 115.88,94.71 120.5,94.71 C115.309925,92.7242534 109.773478,91.8026459 104.22,92 C101.29136,96.7018235 99.3424044,101.946657 98.49,107.42 C94.1785496,110.888659 90.6107838,115.191065 88,120.07 C90.6076397,124.956742 94.1756831,129.266285 98.49,132.74 C99.3405307,138.213832 101.289622,143.45903 104.22,148.16 C109.759448,148.35094 115.280248,147.418901 120.45,145.42 C115.82,145.42 109.94,138.25 109.94,138.25 C109.94,138.25 100.71,136.59 98.49,132.74 C96.27,128.89 99.45,120.07 99.45,120.07 Z" id="Shape" fill="#FFF100"></path>
            </g>
        </g>
    </g>
</svg>
