
<svg width="501px" height="500px" viewBox="0 0 501 500" version="1.1" xmlns="http://www.w3.org/2000/svg" xmlns:xlink="http://www.w3.org/1999/xlink">
    <!-- Generator: Sketch 51.2 (57519) - http://www.bohemiancoding.com/sketch -->
    <desc>Created with Sketch.</desc>
    <defs></defs>
    <g id="Page-1" stroke="none" stroke-width="1" fill="none" fill-rule="evenodd">
        <g id="UI-for-SOAP-01" transform="translate(-668.000000, -430.000000)" fill-rule="nonzero">
            <g id="selector" transform="translate(139.000000, 430.000000)">
                <g id="Group" opacity="0.8" fill="#FFFFFF">
                    <path d="M529.86,365 C600.841979,372.09006 656.989363,428.229079 664.09,499.21 L1029.09,499.21 C1021.34,227 802.08,7.72 529.86,1.70530257e-13 L529.86,365 Z" id="Shape"></path>
                </g>
                <path d="M987.33,499.21 L1029.07,499.21 C1021.34,227 802.08,7.72 529.86,0 L529.86,40.37 C779.16,48.78 979.65,249.72 987.33,499.21 Z" id="Shape" fill="#FFFFFF"></path>
                <g id="Group" transform="translate(89.000000, 76.000000)" fill="#636363">
                    <path d="M667.05,6.66 C670.49,0.77 675.8,-0.65 680.64,2.18 C685.48,5.01 686.83,10.36 683.41,16.18 C679.99,22 674.59,23.67 669.73,20.83 C664.87,17.99 663.61,12.54 667.05,6.66 Z M679.24,13.78 C681.34,10.19 681.05,7.13 678.59,5.69 C676.13,4.25 673.32,5.5 671.22,9.1 C669.12,12.7 669.34,15.93 671.78,17.35 C674.22,18.77 677.12,17.4 679.24,13.78 Z" id="Shape"></path>
                    <path d="M699,13.83 L704.95,17.78 C708.57,20.19 710.71,23.03 708.5,26.36 C707.338727,28.162449 705.080488,28.9151951 703.07,28.17 L703,28.28 C705.18,30.38 705.61,32.56 704.07,34.88 C701.72,38.42 697.69,38.01 693.9,35.49 L687.45,31.21 L699,13.83 Z M695.6,32.24 C697.73,33.66 699.39,33.6 700.43,32.03 C701.47,30.46 700.79,29.12 698.63,27.68 L696.44,26.23 L693.44,30.79 L695.6,32.24 Z M700.1,24.66 C702.02,25.94 703.42,25.66 704.29,24.37 C705.16,23.08 704.6,21.93 702.79,20.73 L700.93,19.49 L698.29,23.49 L700.1,24.66 Z" id="Shape"></path>
                    <path d="M713.39,41.9 C713.748603,43.777227 714.744808,45.4728942 716.21,46.7 C717.77,47.87 719,47.82 719.75,46.82 C720.5,45.82 719.82,44.73 718.82,43.02 L717.35,40.49 C715.823245,38.3732443 715.823245,35.5167557 717.35,33.4 C719.41,30.63 723.54,30.27 727.01,32.84 C729.026067,34.3440701 730.375196,36.5758737 730.77,39.06 L727.09,40.06 C726.74289,38.4975393 725.858073,37.1066069 724.59,36.13 C723.3,35.13 722.04,35.13 721.33,36.06 C720.62,36.99 721.41,38.27 722.43,39.95 L723.92,42.4 C725.33,44.73 725.61,47.05 723.85,49.4 C721.79,52.18 717.69,52.87 713.71,49.92 C711.417868,48.215367 709.839414,45.7211956 709.28,42.92 L713.39,41.9 Z" id="Shape"></path>
                    <polygon id="Shape" points="741.85 44.75 751.94 53.08 749.42 56.14 743 50.83 740.33 54.06 745.81 58.58 743.31 61.58 737.82 57.06 734.82 60.76 741.51 66.28 738.99 69.34 728.64 60.81"></polygon>
                    <path d="M755.69,84.36 L757.83,76.12 L755.94,74.39 L750.86,79.93 L747.37,76.73 L761.47,61.35 L767.01,66.44 C770.27,69.44 771.92,73.02 768.56,76.68 C766.925568,78.6907771 764.204726,79.4590147 761.76,78.6 L759.58,87.93 L755.69,84.36 Z M758.47,71.63 L760.24,73.25 C762.06,74.92 763.76,75.05 765.14,73.54 C766.52,72.03 766.02,70.6 764.2,68.94 L762.43,67.31 L758.47,71.63 Z" id="Shape"></path>
                    <path d="M779.47,78.17 L782.97,81.73 L777.8,90.35 C776.6,92.35 775.38,94.15 774.19,96.22 L774.28,96.31 C776.37,95.16 778.17,93.97 780.22,92.82 L788.89,87.76 L792.27,91.21 L773,101.32 L769,97.32 L779.47,78.17 Z" id="Shape"></path>
                    <path d="M793.5,116.3 L789.25,111.51 L784.69,113.84 L781.51,110.25 L801.51,101.32 L805.24,105.54 L794,124.29 L790.68,120.55 L793.5,116.3 Z M795.62,113.14 L796.71,111.48 C797.89,109.67 799.37,107.63 800.62,105.76 L800.54,105.66 C798.54,106.77 796.36,107.95 794.42,108.9 L792.64,109.79 L795.62,113.14 Z" id="Shape"></path>
                    <polygon id="Shape" points="814.8 123.09 811.2 118.6 814.29 116.11 824.42 128.75 821.33 131.23 817.74 126.76 804.56 137.33 801.62 133.66"></polygon>
                    <polygon id="Shape" points="831.16 137.75 833.96 141.57 817.14 153.9 814.34 150.08"></polygon>
                    <path d="M832.35,157 C838.03,153.23 843.42,154.3 846.51,159 C849.6,163.7 848.51,169.07 842.81,172.82 C837.11,176.57 831.59,175.64 828.48,170.95 C825.37,166.26 826.67,160.78 832.35,157 Z M840.14,168.76 C843.61,166.46 844.7,163.59 843.14,161.22 C841.58,158.85 838.5,158.73 835.03,161.02 C831.56,163.31 830.33,166.33 831.89,168.67 C833.45,171.01 836.64,171.09 840.14,168.78 L840.14,168.76 Z" id="Shape"></path>
                    <path d="M857.87,177.55 L860.29,181.73 L854.05,191.64 L851.11,195.75 L851.18,195.86 C852.97,194.56 855.33,192.75 857.46,191.51 L863.82,187.82 L866.07,191.7 L848.07,202.16 L845.6,198 L851.87,188.08 L854.77,184.08 L854.71,183.97 C852.83,185.32 850.61,187.05 848.48,188.28 L842.09,191.99 L839.82,188.09 L857.87,177.55 Z" id="Shape"></path>
                </g>
            </g>
        </g>
    </g>
</svg>
