
<svg width="501px" height="501px" viewBox="0 0 501 501" version="1.1" xmlns="http://www.w3.org/2000/svg" xmlns:xlink="http://www.w3.org/1999/xlink">
    <!-- Generator: Sketch 51.2 (57519) - http://www.bohemiancoding.com/sketch -->
    <desc>Created with Sketch.</desc>
    <defs></defs>
    <g id="Page-1" stroke="none" stroke-width="1" fill="none" fill-rule="evenodd">
        <g id="UI-for-SOAP-01" transform="translate(-139.000000, -958.000000)" fill-rule="nonzero">
            <g id="selector" transform="translate(139.000000, 430.000000)">
                <path d="M39.85,528.92 L0.93,528.92 C8.66,801.15 227.93,1020.41 500.14,1028.14 L500.14,987.85 C249.53,980.87 47.56,779.35 39.85,528.92 Z" id="Shape" fill="#FFFFFF"></path>
                <g id="Group" opacity="0.8" fill="#FFFFFF">
                    <path d="M500.14,663.16 C429.146144,656.071213 372.993498,599.914384 365.91,528.92 L0.91,528.92 C8.64,801.15 227.91,1020.41 500.12,1028.14 L500.14,663.16 Z" id="Shape"></path>
                </g>
                <g id="Group" transform="translate(89.000000, 76.000000)" fill="#636363">
                    <path d="M38,728.21 L42.63,734.21 C45.4,737.82 46.28,741.7 42.26,744.78 C38.24,747.86 34.37,746.11 31.68,742.6 L29.93,740.32 L24.31,744.62 L21.43,740.86 L38,728.21 Z M34.48,740.15 C36.06,742.15 37.73,742.49 39.48,741.15 C41.23,739.81 41.02,738.27 39.48,736.29 L37.91,734.23 L32.91,738.07 L34.48,740.15 Z" id="Shape"></path>
                    <path d="M45.72,771 L48.83,763.07 L47.16,761.12 L41.45,766.02 L38.37,762.42 L54.21,748.84 L59.1,754.55 C61.98,757.91 63.18,761.67 59.42,764.9 C57.5549801,766.711903 54.7508623,767.15255 52.42,766 L49.14,775 L45.72,771 Z M50,758.7 L51.56,760.52 C53.17,762.39 54.84,762.72 56.4,761.39 C57.96,760.06 57.61,758.58 56.01,756.71 L54.45,754.89 L50,758.7 Z" id="Shape"></path>
                    <path d="M66.8,786.65 L62.38,782.02 L57.91,784.51 L54.6,781 L74.22,771.35 L78.11,775.43 L67.53,794.57 L64.09,790.96 L66.8,786.65 Z M68.8,783.42 L69.8,781.72 C70.91,779.87 72.32,777.78 73.5,775.86 L73.41,775.76 C71.48,776.94 69.32,778.2 67.41,779.22 L65.67,780.22 L68.8,783.42 Z" id="Shape"></path>
                    <path d="M82,798.35 L86.71,784.28 L90.35,787.74 L88.41,792.52 C87.73,794.04 87.13,795.46 86.47,797.03 L86.56,797.12 C88.08,796.36 89.56,795.73 91.01,794.99 L95.67,792.79 L99.24,796.18 L85.41,801.59 L80.3,806.97 L76.89,803.73 L82,798.35 Z" id="Shape"></path>
                    <polygon id="Shape" points="106.05 802.22 115.98 810.75 113.39 813.75 107.05 808.31 104.32 811.49 109.71 816.12 107.15 819.12 101.76 814.49 98.63 818.13 105.21 823.79 102.62 826.79 92.45 818.05"></polygon>
                    <path d="M120.91,841.3 L122.33,832.9 L120.33,831.34 L115.73,837.34 L112,834.4 L124.75,817.88 L130.75,822.47 C134.25,825.17 136.2,828.61 133.17,832.54 C131.713205,834.682444 129.069971,835.682154 126.56,835.04 L125.18,844.53 L120.91,841.3 Z M122.59,828.37 L124.49,829.84 C126.49,831.34 128.16,831.33 129.41,829.71 C130.66,828.09 130.02,826.71 128.07,825.2 L126.17,823.73 L122.59,828.37 Z" id="Shape"></path>
                </g>
            </g>
        </g>
    </g>
</svg>
