
<svg width="501px" height="500px" viewBox="0 0 501 500" version="1.1" xmlns="http://www.w3.org/2000/svg" xmlns:xlink="http://www.w3.org/1999/xlink">
    <!-- Generator: Sketch 51.2 (57519) - http://www.bohemiancoding.com/sketch -->
    <desc>Created with Sketch.</desc>
    <defs></defs>
    <g id="Page-1" stroke="none" stroke-width="1" fill="none" fill-rule="evenodd">
        <g id="UI-for-SOAP-01" transform="translate(-139.000000, -430.000000)" fill-rule="nonzero">
            <g id="selector" transform="translate(139.000000, 430.000000)">
                <g id="Group" opacity="0.8" fill="#FFFFFF">
                    <path d="M365.91,499.21 C373.010637,428.229079 429.158021,372.09006 500.14,365 L500.14,1.13686838e-13 C227.92,7.72 8.66,227 0.93,499.21 L365.91,499.21 Z" id="Shape"></path>
                </g>
                <path d="M500.14,40.28 L500.14,0 C227.92,7.72 8.66,227 0.93,499.21 L39.85,499.21 C47.56,248.78 249.53,47.27 500.14,40.28 Z" id="Shape" fill="#FFFFFF"></path>
                <g id="Group" transform="translate(89.000000, 76.000000)" fill="#636363">
                    <path d="M12.28,174.91 C14.1333438,174.444416 15.7689327,173.352846 16.91,171.82 C17.98,170.19 17.91,168.97 16.82,168.28 C15.73,167.59 14.72,168.33 13.08,169.43 L10.65,171.05 C8.62470694,172.697493 5.77192836,172.862697 3.57,171.46 C0.68,169.57 0.08,165.46 2.44,161.85 C3.82976381,159.752206 5.98181338,158.278052 8.44,157.74 L9.63,161.35 C8.08914711,161.789194 6.7513691,162.755367 5.85,164.08 C4.97,165.42 4.99,166.69 5.98,167.33 C6.97,167.97 8.17,167.13 9.79,166.01 L12.15,164.38 C14.4,162.83 16.69,162.38 19.15,164.03 C22.04,165.93 22.98,170.03 20.26,174.13 C18.6910227,176.537818 16.2807413,178.274219 13.5,179 L12.28,174.91 Z" id="Shape"></path>
                    <path d="M18.45,138.86 C19.8675628,137.000767 21.970944,135.787001 24.29,135.49 L25.11,139.3 C23.7835578,139.456898 22.5779124,140.146354 21.77,141.21 C20.05,143.56 20.77,146.89 24.13,149.37 C27.49,151.85 30.79,151.75 32.59,149.29 C33.4997358,148.058575 33.8081237,146.483594 33.43,145 L37.26,144.59 C37.8834171,147.070294 37.3583199,149.699452 35.83,151.75 C32.63,156.11 27.06,157.5 21.4,153.36 C15.74,149.22 15.27,143.2 18.45,138.86 Z" id="Shape"></path>
                    <path d="M52.88,129.39 L44.53,127.72 L42.9,129.72 L48.72,134.48 L45.72,138.15 L29.58,124.9 L34.35,119.09 C37.15,115.67 40.65,113.82 44.48,116.97 C46.5817223,118.486555 47.5025678,121.16101 46.78,123.65 L56.22,125.31 L52.88,129.39 Z M40,127.32 L41.52,125.47 C43.08,123.56 43.12,121.85 41.52,120.56 C39.92,119.27 38.52,119.85 36.98,121.76 L35.46,123.61 L40,127.32 Z" id="Shape"></path>
                    <polygon id="Shape" points="47.47 103.71 50.64 100.18 66.17 114.12 63 117.64"></polygon>
                    <path d="M59.4,90.7 L64.74,85.27 C67.92,82.03 71.64,80.61 75.25,84.15 C78.86,87.69 77.67,91.78 74.57,94.93 L72.57,96.98 L77.57,101.98 L74.25,105.35 L59.4,90.7 Z M71.7,92.51 C73.52,90.66 73.57,88.96 72.02,87.44 C70.47,85.92 68.95,86.31 67.2,88.1 L65.39,89.94 L69.89,94.36 L71.7,92.51 Z" id="Shape"></path>
                    <polygon id="Shape" points="84.35 71.74 80.11 75.64 77.42 72.71 89.35 61.71 92.04 64.64 87.82 68.51 99.24 81 95.77 84.18"></polygon>
                    <path d="M98,54.28 L101.64,51.28 L109.05,60.28 C111.65,63.45 113.54,63.73 115.34,62.28 C117.14,60.83 117.34,58.84 114.72,55.67 L107.3,46.67 L110.82,43.78 L117.92,52.44 C122.37,57.86 122.1,62.01 117.92,65.44 C113.74,68.87 109.56,68.38 105.11,62.96 L98,54.28 Z" id="Shape"></path>
                    <path d="M142.55,46 L134.88,42.29 L132.81,43.8 L137.25,49.87 L133.42,52.66 L121.12,35.81 L127.2,31.38 C130.77,28.77 134.62,27.86 137.54,31.87 C139.168218,33.859097 139.387583,36.6510186 138.09,38.87 L146.81,42.87 L142.55,46 Z M130.61,40.77 L132.55,39.36 C134.55,37.9 135,36.26 133.79,34.61 C132.58,32.96 131.09,33.17 129.1,34.61 L127.16,36 L130.61,40.77 Z" id="Shape"></path>
                    <polygon id="Shape" points="143.9 19.63 154.9 12.49 157.07 15.82 150.07 20.38 152.35 23.89 158.35 20.02 160.5 23.32 154.5 27.19 157.12 31.19 164.39 26.46 166.55 29.79 155.31 37.1"></polygon>
                </g>
            </g>
        </g>
    </g>
</svg>
