
<svg width="1030px" height="1029px" viewBox="0 0 1030 1029" version="1.1" xmlns="http://www.w3.org/2000/svg" xmlns:xlink="http://www.w3.org/1999/xlink">
    <!-- Generator: Sketch 51.2 (57519) - http://www.bohemiancoding.com/sketch -->
    <desc>Created with Sketch.</desc>
    <defs></defs>
    <g id="Page-1" stroke="none" stroke-width="1" fill="none" fill-rule="evenodd">
        <g id="UI-for-SOAP-01" transform="translate(-139.000000, -430.000000)" fill-rule="nonzero">
            <g id="selector" transform="translate(139.000000, 430.000000)">
                <path d="M39.85,528.92 L0.93,528.92 C8.66,801.15 227.93,1020.41 500.14,1028.14 L500.14,987.85 C249.53,980.87 47.56,779.35 39.85,528.92 Z" id="Shape" fill="#FFFFFF"></path>
                <g id="Group" opacity="0.8" fill="#FFFFFF">
                    <path d="M664.09,528.92 C657.006502,599.914384 600.853856,656.071213 529.86,663.16 L529.86,1028.16 C802.08,1020.43 1021.34,801.16 1029.07,528.94 L664.09,528.92 Z" id="Shape"></path>
                    <path d="M529.86,365 C600.841979,372.09006 656.989363,428.229079 664.09,499.21 L1029.09,499.21 C1021.34,227 802.08,7.72 529.86,1.70530257e-13 L529.86,365 Z" id="Shape"></path>
                    <path d="M365.91,499.21 C373.010637,428.229079 429.158021,372.09006 500.14,365 L500.14,1.13686838e-13 C227.92,7.72 8.66,227 0.93,499.21 L365.91,499.21 Z" id="Shape"></path>
                    <path d="M500.14,663.16 C429.146144,656.071213 372.993498,599.914384 365.91,528.92 L0.91,528.92 C8.64,801.15 227.91,1020.41 500.12,1028.14 L500.14,663.16 Z" id="Shape"></path>
                </g>
                <path d="M987.33,499.21 L1029.07,499.21 C1021.34,227 802.08,7.72 529.86,0 L529.86,40.37 C779.16,48.78 979.65,249.72 987.33,499.21 Z" id="Shape" fill="#FFFFFF"></path>
                <path d="M500.14,40.28 L500.14,0 C227.92,7.72 8.66,227 0.93,499.21 L39.85,499.21 C47.56,248.78 249.53,47.27 500.14,40.28 Z" id="Shape" fill="#FFFFFF"></path>
                <path d="M529.86,987.76 L529.86,1028.14 C802.08,1020.41 1021.34,801.14 1029.07,528.92 L987.33,528.92 C979.65,778.41 779.16,979.35 529.86,987.76 Z" id="Shape" fill="#FFFFFF"></path>
                <g id="Group" transform="translate(89.000000, 76.000000)" fill="#636363">
                    <path d="M12.28,174.91 C14.1333438,174.444416 15.7689327,173.352846 16.91,171.82 C17.98,170.19 17.91,168.97 16.82,168.28 C15.73,167.59 14.72,168.33 13.08,169.43 L10.65,171.05 C8.62470694,172.697493 5.77192836,172.862697 3.57,171.46 C0.68,169.57 0.08,165.46 2.44,161.85 C3.82976381,159.752206 5.98181338,158.278052 8.44,157.74 L9.63,161.35 C8.08914711,161.789194 6.7513691,162.755367 5.85,164.08 C4.97,165.42 4.99,166.69 5.98,167.33 C6.97,167.97 8.17,167.13 9.79,166.01 L12.15,164.38 C14.4,162.83 16.69,162.38 19.15,164.03 C22.04,165.93 22.98,170.03 20.26,174.13 C18.6910227,176.537818 16.2807413,178.274219 13.5,179 L12.28,174.91 Z" id="Shape"></path>
                    <path d="M18.45,138.86 C19.8675628,137.000767 21.970944,135.787001 24.29,135.49 L25.11,139.3 C23.7835578,139.456898 22.5779124,140.146354 21.77,141.21 C20.05,143.56 20.77,146.89 24.13,149.37 C27.49,151.85 30.79,151.75 32.59,149.29 C33.4997358,148.058575 33.8081237,146.483594 33.43,145 L37.26,144.59 C37.8834171,147.070294 37.3583199,149.699452 35.83,151.75 C32.63,156.11 27.06,157.5 21.4,153.36 C15.74,149.22 15.27,143.2 18.45,138.86 Z" id="Shape"></path>
                    <path d="M52.88,129.39 L44.53,127.72 L42.9,129.72 L48.72,134.48 L45.72,138.15 L29.58,124.9 L34.35,119.09 C37.15,115.67 40.65,113.82 44.48,116.97 C46.5817223,118.486555 47.5025678,121.16101 46.78,123.65 L56.22,125.31 L52.88,129.39 Z M40,127.32 L41.52,125.47 C43.08,123.56 43.12,121.85 41.52,120.56 C39.92,119.27 38.52,119.85 36.98,121.76 L35.46,123.61 L40,127.32 Z" id="Shape"></path>
                    <polygon id="Shape" points="47.47 103.71 50.64 100.18 66.17 114.12 63 117.64"></polygon>
                    <path d="M59.4,90.7 L64.74,85.27 C67.92,82.03 71.64,80.61 75.25,84.15 C78.86,87.69 77.67,91.78 74.57,94.93 L72.57,96.98 L77.57,101.98 L74.25,105.35 L59.4,90.7 Z M71.7,92.51 C73.52,90.66 73.57,88.96 72.02,87.44 C70.47,85.92 68.95,86.31 67.2,88.1 L65.39,89.94 L69.89,94.36 L71.7,92.51 Z" id="Shape"></path>
                    <polygon id="Shape" points="84.35 71.74 80.11 75.64 77.42 72.71 89.35 61.71 92.04 64.64 87.82 68.51 99.24 81 95.77 84.18"></polygon>
                    <path d="M98,54.28 L101.64,51.28 L109.05,60.28 C111.65,63.45 113.54,63.73 115.34,62.28 C117.14,60.83 117.34,58.84 114.72,55.67 L107.3,46.67 L110.82,43.78 L117.92,52.44 C122.37,57.86 122.1,62.01 117.92,65.44 C113.74,68.87 109.56,68.38 105.11,62.96 L98,54.28 Z" id="Shape"></path>
                    <path d="M142.55,46 L134.88,42.29 L132.81,43.8 L137.25,49.87 L133.42,52.66 L121.12,35.81 L127.2,31.38 C130.77,28.77 134.62,27.86 137.54,31.87 C139.168218,33.859097 139.387583,36.6510186 138.09,38.87 L146.81,42.87 L142.55,46 Z M130.61,40.77 L132.55,39.36 C134.55,37.9 135,36.26 133.79,34.61 C132.58,32.96 131.09,33.17 129.1,34.61 L127.16,36 L130.61,40.77 Z" id="Shape"></path>
                    <polygon id="Shape" points="143.9 19.63 154.9 12.49 157.07 15.82 150.07 20.38 152.35 23.89 158.35 20.02 160.5 23.32 154.5 27.19 157.12 31.19 164.39 26.46 166.55 29.79 155.31 37.1"></polygon>
                    <path d="M667.05,6.66 C670.49,0.77 675.8,-0.65 680.64,2.18 C685.48,5.01 686.83,10.36 683.41,16.18 C679.99,22 674.59,23.67 669.73,20.83 C664.87,17.99 663.61,12.54 667.05,6.66 Z M679.24,13.78 C681.34,10.19 681.05,7.13 678.59,5.69 C676.13,4.25 673.32,5.5 671.22,9.1 C669.12,12.7 669.34,15.93 671.78,17.35 C674.22,18.77 677.12,17.4 679.24,13.78 Z" id="Shape"></path>
                    <path d="M699,13.83 L704.95,17.78 C708.57,20.19 710.71,23.03 708.5,26.36 C707.338727,28.162449 705.080488,28.9151951 703.07,28.17 L703,28.28 C705.18,30.38 705.61,32.56 704.07,34.88 C701.72,38.42 697.69,38.01 693.9,35.49 L687.45,31.21 L699,13.83 Z M695.6,32.24 C697.73,33.66 699.39,33.6 700.43,32.03 C701.47,30.46 700.79,29.12 698.63,27.68 L696.44,26.23 L693.44,30.79 L695.6,32.24 Z M700.1,24.66 C702.02,25.94 703.42,25.66 704.29,24.37 C705.16,23.08 704.6,21.93 702.79,20.73 L700.93,19.49 L698.29,23.49 L700.1,24.66 Z" id="Shape"></path>
                    <path d="M713.39,41.9 C713.748603,43.777227 714.744808,45.4728942 716.21,46.7 C717.77,47.87 719,47.82 719.75,46.82 C720.5,45.82 719.82,44.73 718.82,43.02 L717.35,40.49 C715.823245,38.3732443 715.823245,35.5167557 717.35,33.4 C719.41,30.63 723.54,30.27 727.01,32.84 C729.026067,34.3440701 730.375196,36.5758737 730.77,39.06 L727.09,40.06 C726.74289,38.4975393 725.858073,37.1066069 724.59,36.13 C723.3,35.13 722.04,35.13 721.33,36.06 C720.62,36.99 721.41,38.27 722.43,39.95 L723.92,42.4 C725.33,44.73 725.61,47.05 723.85,49.4 C721.79,52.18 717.69,52.87 713.71,49.92 C711.417868,48.215367 709.839414,45.7211956 709.28,42.92 L713.39,41.9 Z" id="Shape"></path>
                    <polygon id="Shape" points="741.85 44.75 751.94 53.08 749.42 56.14 743 50.83 740.33 54.06 745.81 58.58 743.31 61.58 737.82 57.06 734.82 60.76 741.51 66.28 738.99 69.34 728.64 60.81"></polygon>
                    <path d="M755.69,84.36 L757.83,76.12 L755.94,74.39 L750.86,79.93 L747.37,76.73 L761.47,61.35 L767.01,66.44 C770.27,69.44 771.92,73.02 768.56,76.68 C766.925568,78.6907771 764.204726,79.4590147 761.76,78.6 L759.58,87.93 L755.69,84.36 Z M758.47,71.63 L760.24,73.25 C762.06,74.92 763.76,75.05 765.14,73.54 C766.52,72.03 766.02,70.6 764.2,68.94 L762.43,67.31 L758.47,71.63 Z" id="Shape"></path>
                    <path d="M779.47,78.17 L782.97,81.73 L777.8,90.35 C776.6,92.35 775.38,94.15 774.19,96.22 L774.28,96.31 C776.37,95.16 778.17,93.97 780.22,92.82 L788.89,87.76 L792.27,91.21 L773,101.32 L769,97.32 L779.47,78.17 Z" id="Shape"></path>
                    <path d="M793.5,116.3 L789.25,111.51 L784.69,113.84 L781.51,110.25 L801.51,101.32 L805.24,105.54 L794,124.29 L790.68,120.55 L793.5,116.3 Z M795.62,113.14 L796.71,111.48 C797.89,109.67 799.37,107.63 800.62,105.76 L800.54,105.66 C798.54,106.77 796.36,107.95 794.42,108.9 L792.64,109.79 L795.62,113.14 Z" id="Shape"></path>
                    <polygon id="Shape" points="814.8 123.09 811.2 118.6 814.29 116.11 824.42 128.75 821.33 131.23 817.74 126.76 804.56 137.33 801.62 133.66"></polygon>
                    <polygon id="Shape" points="831.16 137.75 833.96 141.57 817.14 153.9 814.34 150.08"></polygon>
                    <path d="M832.35,157 C838.03,153.23 843.42,154.3 846.51,159 C849.6,163.7 848.51,169.07 842.81,172.82 C837.11,176.57 831.59,175.64 828.48,170.95 C825.37,166.26 826.67,160.78 832.35,157 Z M840.14,168.76 C843.61,166.46 844.7,163.59 843.14,161.22 C841.58,158.85 838.5,158.73 835.03,161.02 C831.56,163.31 830.33,166.33 831.89,168.67 C833.45,171.01 836.64,171.09 840.14,168.78 L840.14,168.76 Z" id="Shape"></path>
                    <path d="M857.87,177.55 L860.29,181.73 L854.05,191.64 L851.11,195.75 L851.18,195.86 C852.97,194.56 855.33,192.75 857.46,191.51 L863.82,187.82 L866.07,191.7 L848.07,202.16 L845.6,198 L851.87,188.08 L854.77,184.08 L854.71,183.97 C852.83,185.32 850.61,187.05 848.48,188.28 L842.09,191.99 L839.82,188.09 L857.87,177.55 Z" id="Shape"></path>
                    <path d="M683.05,867.28 L677.54,870.55 L678.97,875.46 L674.84,877.91 L669.84,856.62 L674.68,853.75 L690.96,868.35 L686.67,870.9 L683.05,867.28 Z M680.35,864.61 L678.93,863.22 C677.37,861.72 675.65,859.88 674.04,858.3 L673.93,858.37 C674.64,860.51 675.39,862.9 675.93,864.98 L676.47,866.89 L680.35,864.61 Z" id="Shape"></path>
                    <path d="M688,845.54 L694.33,841.32 C698.11,838.8 702.04,838.17 704.84,842.38 C707.64,846.59 705.66,850.38 701.98,852.79 L699.59,854.39 L703.51,860.27 L699.58,862.9 L688,845.54 Z M699.67,849.83 C701.82,848.39 702.22,846.74 701.01,844.94 C699.8,843.14 698.24,843.21 696.17,844.59 L694,846 L697.5,851.24 L699.67,849.83 Z" id="Shape"></path>
                    <path d="M709.6,830.71 L715.7,826.14 C719.33,823.41 723.22,822.57 726.26,826.62 C729.3,830.67 727.5,834.52 723.97,837.17 L721.67,838.9 L725.91,844.56 L722.12,847.4 L709.6,830.71 Z M721.49,834.35 C723.57,832.79 723.88,831.12 722.57,829.35 C721.26,827.58 719.71,827.78 717.71,829.27 L715.64,830.83 L719.42,835.83 L721.49,834.35 Z" id="Shape"></path>
                    <polygon id="Shape" points="730.39 814.7 734.03 811.7 744.85 824.7 751.17 819.44 753.71 822.44 743.71 830.74"></polygon>
                    <polygon id="Shape" points="748.19 799.46 751.7 796.28 765.7 811.74 762.19 814.92"></polygon>
                    <path d="M766.4,781.69 C768.093527,780.076994 770.36231,779.209095 772.7,779.28 L772.91,783.17 C771.573191,783.122185 770.272965,783.612021 769.3,784.53 C767.23,786.53 767.39,789.98 770.3,792.96 C773.21,795.94 776.51,796.36 778.67,794.22 C779.770719,793.149979 780.326169,791.638124 780.18,790.11 L784.03,790.31 C784.253795,792.860682 783.317227,795.37656 781.48,797.16 C777.64,800.96 771.91,801.45 766.98,796.47 C762.05,791.49 762.58,785.47 766.4,781.69 Z" id="Shape"></path>
                    <path d="M796.38,773.78 L792.07,778.51 L794.87,782.8 L791.64,786.34 L780.64,767.45 L784.44,763.28 L804.27,772.48 L800.91,776.17 L796.38,773.78 Z M793,772 L791.24,771.09 C789.31,770.09 787.12,768.86 785.13,767.82 L785.04,767.91 C786.35,769.75 787.76,771.82 788.91,773.64 L789.98,775.31 L793,772 Z" id="Shape"></path>
                    <polygon id="Shape" points="799.55 751.88 795.88 756.32 792.82 753.79 803.12 741.3 806.19 743.83 802.54 748.25 815.54 759 812.54 762.63"></polygon>
                    <polygon id="Shape" points="809.31 733.29 812.16 729.51 828.81 742.09 825.95 745.86"></polygon>
                    <path d="M827.13,726.68 C821.5,722.83 820.47,717.43 823.63,712.81 C826.79,708.19 832.22,707.22 837.82,711.05 C843.42,714.88 844.66,720.38 841.48,725.05 C838.3,729.72 832.75,730.53 827.13,726.68 Z M835.13,715.03 C831.69,712.69 828.62,712.76 827.01,715.11 C825.4,717.46 826.45,720.35 829.89,722.69 C833.33,725.03 836.57,725.05 838.16,722.69 C839.75,720.33 838.56,717.4 835.1,715 L835.13,715.03 Z" id="Shape"></path>
                    <path d="M835.08,696.13 L837.56,691.99 L849.25,692.66 L854.25,693.25 L854.32,693.14 C852.32,692.14 849.59,691.01 847.47,689.74 L841.16,685.95 L843.47,682.11 L861.36,692.85 L858.87,696.99 L847.15,696.3 L842.21,695.72 L842.14,695.83 C844.23,696.83 846.81,697.93 848.93,699.19 L855.27,703 L852.94,706.87 L835.08,696.13 Z" id="Shape"></path>
                    <path d="M38,728.21 L42.63,734.21 C45.4,737.82 46.28,741.7 42.26,744.78 C38.24,747.86 34.37,746.11 31.68,742.6 L29.93,740.32 L24.31,744.62 L21.43,740.86 L38,728.21 Z M34.48,740.15 C36.06,742.15 37.73,742.49 39.48,741.15 C41.23,739.81 41.02,738.27 39.48,736.29 L37.91,734.23 L32.91,738.07 L34.48,740.15 Z" id="Shape"></path>
                    <path d="M45.72,771 L48.83,763.07 L47.16,761.12 L41.45,766.02 L38.37,762.42 L54.21,748.84 L59.1,754.55 C61.98,757.91 63.18,761.67 59.42,764.9 C57.5549801,766.711903 54.7508623,767.15255 52.42,766 L49.14,775 L45.72,771 Z M50,758.7 L51.56,760.52 C53.17,762.39 54.84,762.72 56.4,761.39 C57.96,760.06 57.61,758.58 56.01,756.71 L54.45,754.89 L50,758.7 Z" id="Shape"></path>
                    <path d="M66.8,786.65 L62.38,782.02 L57.91,784.51 L54.6,781 L74.22,771.35 L78.11,775.43 L67.53,794.57 L64.09,790.96 L66.8,786.65 Z M68.8,783.42 L69.8,781.72 C70.91,779.87 72.32,777.78 73.5,775.86 L73.41,775.76 C71.48,776.94 69.32,778.2 67.41,779.22 L65.67,780.22 L68.8,783.42 Z" id="Shape"></path>
                    <path d="M82,798.35 L86.71,784.28 L90.35,787.74 L88.41,792.52 C87.73,794.04 87.13,795.46 86.47,797.03 L86.56,797.12 C88.08,796.36 89.56,795.73 91.01,794.99 L95.67,792.79 L99.24,796.18 L85.41,801.59 L80.3,806.97 L76.89,803.73 L82,798.35 Z" id="Shape"></path>
                    <polygon id="Shape" points="106.05 802.22 115.98 810.75 113.39 813.75 107.05 808.31 104.32 811.49 109.71 816.12 107.15 819.12 101.76 814.49 98.63 818.13 105.21 823.79 102.62 826.79 92.45 818.05"></polygon>
                    <path d="M120.91,841.3 L122.33,832.9 L120.33,831.34 L115.73,837.34 L112,834.4 L124.75,817.88 L130.75,822.47 C134.25,825.17 136.2,828.61 133.17,832.54 C131.713205,834.682444 129.069971,835.682154 126.56,835.04 L125.18,844.53 L120.91,841.3 Z M122.59,828.37 L124.49,829.84 C126.49,831.34 128.16,831.33 129.41,829.71 C130.66,828.09 130.02,826.71 128.07,825.2 L126.17,823.73 L122.59,828.37 Z" id="Shape"></path>
                </g>
            </g>
        </g>
    </g>
</svg>
